<mxfile host="app.diagrams.net" modified="2024-06-01T04:08:27.692Z" agent="Mozilla/5.0 (Macintosh; Intel Mac OS X 10_15_7) AppleWebKit/537.36 (KHTML, like Gecko) Chrome/111.0.0.0 Safari/537.36" version="24.4.13" etag="XcjGrJKNUKxYwTabSbdm" type="github">
  <diagram name="第 1 页" id="LQCQwQrKwe8S7B4fFiQW">
    <mxGraphModel>
      <root>
        <mxCell id="0" />
        <mxCell id="1" parent="0" />
      </root>
    </mxGraphModel>
  </diagram>
</mxfile>
